<mxfile host="app.diagrams.net" modified="2022-03-29T11:23:19.549Z" agent="5.0 (Windows NT 10.0; Win64; x64) AppleWebKit/537.36 (KHTML, like Gecko) Chrome/99.0.4844.82 Safari/537.36" etag="FmGDuTMasO_690I8t5VI" version="17.2.4" type="github">
  <diagram id="wFE0QG_FPsp0jaGvCLVb" name="Page-1">
    <mxGraphModel dx="1278" dy="547" grid="1" gridSize="10" guides="1" tooltips="1" connect="1" arrows="1" fold="1" page="1" pageScale="1" pageWidth="850" pageHeight="1100" math="0" shadow="0">
      <root>
        <mxCell id="0" />
        <mxCell id="1" parent="0" />
        <mxCell id="6U4N98eAY60oqlX8b42U-1" value="展示层" style="rounded=0;whiteSpace=wrap;html=1;" vertex="1" parent="1">
          <mxGeometry x="130" y="70" width="580" height="140" as="geometry" />
        </mxCell>
        <mxCell id="6U4N98eAY60oqlX8b42U-2" value="核心逻辑" style="rounded=0;whiteSpace=wrap;html=1;" vertex="1" parent="1">
          <mxGeometry x="130" y="240" width="580" height="130" as="geometry" />
        </mxCell>
        <mxCell id="6U4N98eAY60oqlX8b42U-3" value="api" style="rounded=0;whiteSpace=wrap;html=1;" vertex="1" parent="1">
          <mxGeometry x="130" y="400" width="580" height="100" as="geometry" />
        </mxCell>
        <mxCell id="6U4N98eAY60oqlX8b42U-4" value="中间件" style="rounded=0;whiteSpace=wrap;html=1;" vertex="1" parent="1">
          <mxGeometry x="730" y="70" width="140" height="430" as="geometry" />
        </mxCell>
        <mxCell id="6U4N98eAY60oqlX8b42U-5" value="第三方平台" style="rounded=0;whiteSpace=wrap;html=1;" vertex="1" parent="1">
          <mxGeometry x="130" y="510" width="740" height="80" as="geometry" />
        </mxCell>
      </root>
    </mxGraphModel>
  </diagram>
</mxfile>
